<?xml version="1.0" encoding="iso-8859-1"?>
<!-- Generator: Adobe Illustrator 19.0.0, SVG Export Plug-In . SVG Version: 6.00 Build 0)  -->
<svg xmlns="http://www.w3.org/2000/svg" xmlns:xlink="http://www.w3.org/1999/xlink" version="1.1" id="Layer_1" x="0px" y="0px" viewBox="0 0 512 512" style="enable-background:new 0 0 512 512;" xml:space="preserve" width="512px" height="512px">
<g>
	<g>
		<path d="M502.731,166.908L263.426,48.057c-4.678-2.324-10.175-2.324-14.854,0L9.268,166.908C3.775,169.637,0,175.288,0,181.86    v267.13c0,9.22,7.475,16.696,16.696,16.696h478.609c9.22,0,16.696-7.475,16.696-16.696V181.86    C512,175.298,508.227,169.638,502.731,166.908z M92.365,384.371c-7.601,5.218-17.993,3.288-23.214-4.313    c-5.219-7.601-3.289-17.995,4.313-23.214l108.296-74.362l34.231,17.001L92.365,384.371z M442.849,380.058    c-5.22,7.602-15.616,9.53-23.214,4.312l-123.625-84.888l34.231-17.001l108.296,74.362    C446.138,362.063,448.068,372.457,442.849,380.058z M256,282.07c-6.706-3.331-188.233-93.486-201.769-100.208L256,81.652    l201.769,100.209C449.1,186.166,262.852,278.667,256,282.07z" fill="#fafbfd"/>
	</g>
</g>
<g>
</g>
<g>
</g>
<g>
</g>
<g>
</g>
<g>
</g>
<g>
</g>
<g>
</g>
<g>
</g>
<g>
</g>
<g>
</g>
<g>
</g>
<g>
</g>
<g>
</g>
<g>
</g>
<g>
</g>
</svg>
