<?xml version="1.0"?>
<svg xmlns="http://www.w3.org/2000/svg" viewBox="0 0 64 64" width="512" height="512"><g id="Computer"><path d="M57,4H7A5.006,5.006,0,0,0,2,9V45a5.006,5.006,0,0,0,5,5H23.867l-.75,6H22a2,2,0,0,0-2,2v2H18v2H46V60H44V58a2,2,0,0,0-2-2H40.883l-.75-6H57a5.006,5.006,0,0,0,5-5V9A5.006,5.006,0,0,0,57,4ZM7,6H57a3,3,0,0,1,3,3V40H4V9A3,3,0,0,1,7,6ZM42,60H22V58H42Zm-3.133-4H25.133l.75-6H38.117ZM57,48H7a3,3,0,0,1-3-3V42H60v3A3,3,0,0,1,57,48Z"/><rect x="55" y="44" width="2" height="2"/><path d="M22.219,17.988a10.86,10.86,0,0,0-.679,1.639l-2.682.383A1,1,0,0,0,18,21v4a1,1,0,0,0,.858.99l2.682.383a10.86,10.86,0,0,0,.679,1.639l-1.625,2.166a1,1,0,0,0,.093,1.307l2.828,2.828a1,1,0,0,0,1.306.093l2.167-1.624a10.855,10.855,0,0,0,1.639.678l.383,2.682A1,1,0,0,0,30,37h4a1,1,0,0,0,.99-.858l.383-2.682a10.9,10.9,0,0,0,1.639-.678l2.167,1.624a1,1,0,0,0,1.306-.093l2.828-2.828a1,1,0,0,0,.093-1.307l-1.625-2.166a10.86,10.86,0,0,0,.679-1.639l2.682-.383A1,1,0,0,0,46,25V21a1,1,0,0,0-.858-.99l-2.682-.383a10.86,10.86,0,0,0-.679-1.639l1.625-2.166a1,1,0,0,0-.093-1.307l-2.828-2.828a1,1,0,0,0-1.306-.093l-2.167,1.624a10.9,10.9,0,0,0-1.639-.678L34.99,9.858A1,1,0,0,0,34,9H30a1,1,0,0,0-.99.858l-.383,2.682a10.855,10.855,0,0,0-1.639.678l-2.167-1.624a.994.994,0,0,0-1.306.093l-2.828,2.828a1,1,0,0,0-.093,1.307Zm1.987-.683-1.492-1.99,1.6-1.6,1.991,1.492a1,1,0,0,0,1.11.06,8.859,8.859,0,0,1,2.356-.975,1,1,0,0,0,.744-.828L30.867,11h2.266l.351,2.463a1,1,0,0,0,.744.828,8.859,8.859,0,0,1,2.356.975,1,1,0,0,0,1.11-.06l1.991-1.492,1.6,1.6-1.492,1.99a1,1,0,0,0-.061,1.111,8.923,8.923,0,0,1,.977,2.357,1,1,0,0,0,.827.742L44,21.867v2.266l-2.463.352a1,1,0,0,0-.827.742,8.923,8.923,0,0,1-.977,2.357,1,1,0,0,0,.061,1.111l1.492,1.99-1.6,1.6-1.991-1.492a1,1,0,0,0-1.11-.06,8.859,8.859,0,0,1-2.356.975,1,1,0,0,0-.744.828L33.133,35H30.867l-.351-2.463a1,1,0,0,0-.744-.828,8.859,8.859,0,0,1-2.356-.975,1,1,0,0,0-1.11.06l-1.991,1.492-1.6-1.6,1.492-1.99a1,1,0,0,0,.061-1.111,8.923,8.923,0,0,1-.977-2.357,1,1,0,0,0-.827-.742L20,24.133V21.867l2.463-.352a1,1,0,0,0,.827-.742,8.923,8.923,0,0,1,.977-2.357A1,1,0,0,0,24.206,17.305Z"/><path d="M32,29a6,6,0,1,0-6-6A6.006,6.006,0,0,0,32,29Zm0-10a4,4,0,1,1-4,4A4,4,0,0,1,32,19Z"/><path d="M48.414,12H50V10H48a1,1,0,0,0-.707.293l-3,3,1.414,1.414Z"/><rect x="52" y="9" width="4" height="2"/><rect x="52" y="13" width="4" height="2"/><path d="M45.707,30.293l-1.414,1.414,3,3A1,1,0,0,0,48,35h2V33H48.414Z"/><rect x="52" y="31" width="4" height="2"/><rect x="52" y="35" width="4" height="2"/><path d="M18.293,14.707l1.414-1.414-3-3A1,1,0,0,0,16,10H14v2h1.586Z"/><rect x="8" y="9" width="4" height="2"/><rect x="8" y="13" width="4" height="2"/><path d="M16.707,34.707l3-3-1.414-1.414L15.586,33H14v2h2A1,1,0,0,0,16.707,34.707Z"/><rect x="8" y="31" width="4" height="2"/><rect x="8" y="35" width="4" height="2"/><rect x="31" y="13" width="2" height="2"/><rect x="24.636" y="15.636" width="2" height="2" transform="translate(-4.256 22.995) rotate(-44.99)"/><rect x="22" y="22" width="2" height="2"/><rect x="24.636" y="28.364" width="2" height="2" transform="translate(-13.255 26.734) rotate(-45.01)"/><rect x="31" y="31" width="2" height="2"/><rect x="37.364" y="28.364" width="2" height="2" transform="translate(-9.528 35.72) rotate(-44.99)"/><rect x="40" y="22" width="2" height="2"/><rect x="37.364" y="15.636" width="2" height="2" transform="translate(-0.527 32) rotate(-45)"/></g></svg>
