<svg xmlns="http://www.w3.org/2000/svg" height="1209pt" version="1.1" viewBox="-1 0 1209 1209.9987" width="1209pt">
<g id="surface1">
<path d="M 549.78125 533.988281 C 466.808594 558.335938 409.765625 634.398438 409.644531 720.871094 L 409.644531 896.207031 C 409.644531 906.96875 418.363281 915.695312 429.121094 915.695312 L 779.816406 915.695312 C 790.578125 915.695312 799.296875 906.96875 799.296875 896.207031 L 799.296875 720.871094 C 799.167969 634.398438 742.125 558.335938 659.164062 533.988281 C 718.296875 508.101562 751.179688 444.304688 737.960938 381.121094 C 724.738281 317.925781 669.023438 272.675781 604.46875 272.675781 C 539.914062 272.675781 484.207031 317.925781 470.980469 381.121094 C 457.757812 444.304688 490.644531 508.101562 549.78125 533.988281 Z M 760.335938 720.871094 L 760.335938 876.722656 L 448.609375 876.722656 L 448.609375 720.871094 C 448.609375 634.78125 518.386719 565 604.46875 565 C 690.539062 565 760.335938 634.78125 760.335938 720.871094 Z M 604.46875 311.726562 C 658.265625 311.726562 701.882812 355.339844 701.882812 409.140625 C 701.882812 462.941406 658.265625 506.550781 604.46875 506.550781 C 550.664062 506.550781 507.054688 462.941406 507.054688 409.140625 C 507.128906 355.363281 550.699219 311.792969 604.46875 311.726562 Z M 604.46875 311.726562 " style=" stroke:none;fill-rule:nonzero;fill:rgb(0%,0%,0%);fill-opacity:1;" />
<path d="M 187.261719 295.53125 L 186.5625 297.167969 L 194.679688 300.601562 C 200.675781 304.164062 207.132812 306.886719 213.882812 308.691406 L 222.464844 312.304688 L 223.167969 310.628906 C 226.851562 311.261719 230.566406 311.628906 234.296875 311.726562 C 248.164062 311.65625 261.769531 307.867188 273.671875 300.71875 L 342.714844 369.765625 L 370.269531 342.214844 L 301.21875 273.171875 C 308.359375 261.273438 312.160156 247.679688 312.226562 233.796875 C 312.136719 230.066406 311.761719 226.347656 311.128906 222.679688 L 312.804688 221.964844 L 309.175781 213.378906 C 307.386719 206.632812 304.664062 200.171875 301.097656 194.164062 L 297.671875 186.0625 L 296.035156 186.765625 C 293.996094 183.925781 291.78125 181.230469 289.402344 178.695312 C 258.566406 149.230469 210.023438 149.230469 179.195312 178.695312 C 148.773438 209.125 148.773438 258.460938 179.195312 288.890625 C 181.734375 291.28125 184.429688 293.496094 187.261719 295.53125 Z M 206.75 206.246094 C 216.523438 196.117188 231.015625 192.046875 244.636719 195.621094 C 258.257812 199.1875 268.898438 209.816406 272.476562 223.445312 C 276.039062 237.078125 271.96875 251.546875 261.84375 261.34375 C 246.421875 276.074219 222.152344 276.074219 206.75 261.34375 C 191.53125 246.121094 191.53125 221.464844 206.75 206.246094 Z M 206.75 206.246094 " style=" stroke:none;fill-rule:nonzero;fill:rgb(0%,0%,0%);fill-opacity:1;" />
<path d="M 1021.636719 912.496094 L 1022.367188 910.769531 L 1011.472656 906.175781 C 1007.644531 904.152344 1003.640625 902.453125 999.519531 901.117188 L 986.472656 895.628906 L 985.496094 897.941406 C 968.21875 895.59375 950.65625 898.898438 935.417969 907.378906 L 866.222656 838.167969 L 838.667969 865.71875 L 907.71875 934.769531 C 900.574219 946.664062 896.773438 960.265625 896.707031 974.140625 C 896.816406 977.875 897.167969 981.59375 897.804688 985.265625 L 896.121094 985.972656 L 899.753906 994.550781 C 901.558594 1001.304688 904.269531 1007.757812 907.832031 1013.757812 L 911.265625 1021.875 L 912.90625 1021.175781 C 914.941406 1024.011719 917.152344 1026.699219 919.550781 1029.242188 C 939.117188 1049.5 968.089844 1057.613281 995.335938 1050.5 C 1022.582031 1043.355469 1043.871094 1022.078125 1050.984375 994.839844 C 1058.125 967.589844 1049.996094 938.609375 1029.746094 919.039062 C 1027.207031 916.667969 1024.5 914.476562 1021.636719 912.496094 Z M 1002.152344 1001.695312 C 986.742188 1016.417969 962.46875 1016.417969 947.054688 1001.695312 C 931.832031 986.472656 931.832031 961.800781 947.046875 946.585938 C 962.273438 931.363281 986.941406 931.363281 1002.152344 946.585938 C 1017.382812 961.800781 1017.382812 986.472656 1002.152344 1001.695312 Z M 1002.152344 1001.695312 " style=" stroke:none;fill-rule:nonzero;fill:rgb(0%,0%,0%);fill-opacity:1;" />
<path d="M 1130.507812 526.039062 C 1126.765625 526.132812 1123.03125 526.519531 1119.339844 527.164062 L 1118.289062 524.675781 L 1101.28125 531.882812 C 1100.542969 532.191406 1099.796875 532.480469 1099.074219 532.820312 L 1082.300781 539.890625 L 1083.355469 542.363281 C 1069.585938 552.875 1059.726562 567.707031 1055.34375 584.484375 L 955.167969 584.484375 L 955.167969 623.453125 L 1055.34375 623.453125 C 1059.726562 640.261719 1069.609375 655.117188 1083.4375 665.652344 L 1082.375 668.128906 L 1099.164062 675.195312 C 1099.871094 675.527344 1100.617188 675.820312 1101.359375 676.136719 L 1118.289062 683.265625 L 1119.339844 680.765625 C 1148.183594 684.984375 1176.953125 672.726562 1193.890625 649.003906 C 1210.820312 625.273438 1213.078125 594.082031 1199.71875 568.171875 C 1186.367188 542.261719 1159.660156 526.007812 1130.507812 526.039062 Z M 1130.507812 642.929688 C 1108.988281 642.929688 1091.542969 625.488281 1091.542969 603.96875 C 1091.542969 582.453125 1108.988281 565 1130.507812 565 C 1152.027344 565 1169.46875 582.453125 1169.46875 603.96875 C 1169.46875 625.488281 1152.027344 642.929688 1130.507812 642.929688 Z M 1130.507812 642.929688 " style=" stroke:none;fill-rule:nonzero;fill:rgb(0%,0%,0%);fill-opacity:1;" />
<path d="M 896.121094 221.964844 L 897.804688 222.679688 C 897.167969 226.347656 896.816406 230.066406 896.707031 233.796875 C 896.773438 247.679688 900.574219 261.273438 907.71875 273.171875 L 838.667969 342.214844 L 866.222656 369.765625 L 935.265625 300.71875 C 947.15625 307.867188 960.765625 311.65625 974.640625 311.726562 C 978.375 311.628906 982.089844 311.261719 985.765625 310.628906 L 986.472656 312.304688 L 995.066406 308.691406 C 1001.796875 306.886719 1008.257812 304.164062 1014.253906 300.601562 L 1022.367188 297.167969 L 1021.675781 295.53125 C 1024.503906 293.496094 1027.207031 291.28125 1029.746094 288.890625 C 1060.164062 258.460938 1060.164062 209.125 1029.746094 178.695312 C 998.910156 149.230469 950.367188 149.230469 919.550781 178.695312 C 917.152344 181.230469 914.941406 183.925781 912.90625 186.765625 L 911.265625 186.0625 L 907.832031 194.179688 C 904.269531 200.179688 901.558594 206.632812 899.753906 213.378906 Z M 947.09375 206.246094 C 956.867188 196.117188 971.355469 192.046875 984.984375 195.621094 C 998.601562 199.1875 1009.253906 209.816406 1012.820312 223.445312 C 1016.390625 237.078125 1012.3125 251.546875 1002.191406 261.34375 C 986.773438 276.074219 962.511719 276.074219 947.09375 261.34375 C 931.882812 246.121094 931.882812 221.464844 947.09375 206.246094 Z M 947.09375 206.246094 " style=" stroke:none;fill-rule:nonzero;fill:rgb(0%,0%,0%);fill-opacity:1;" />
<path d="M 765.714844 167.46875 L 780.832031 131.582031 L 813.316406 145.269531 L 798.191406 181.160156 Z M 765.714844 167.46875 " style=" stroke:none;fill-rule:nonzero;fill:rgb(0%,0%,0%);fill-opacity:1;" />
<path d="M 701.128906 139.746094 L 716.277344 103.84375 L 748.785156 117.554688 L 733.640625 153.449219 Z M 701.128906 139.746094 " style=" stroke:none;fill-rule:nonzero;fill:rgb(0%,0%,0%);fill-opacity:1;" />
<path d="M 830.664062 194.886719 L 845.78125 159.007812 L 878.253906 172.6875 L 863.140625 208.558594 Z M 830.664062 194.886719 " style=" stroke:none;fill-rule:nonzero;fill:rgb(0%,0%,0%);fill-opacity:1;" />
<path d="M 1054.972656 733.128906 L 1068.683594 700.632812 L 1104.578125 715.789062 L 1090.878906 748.273438 Z M 1054.972656 733.128906 " style=" stroke:none;fill-rule:nonzero;fill:rgb(0%,0%,0%);fill-opacity:1;" />
<path d="M 1000.179688 863.121094 L 1013.886719 830.605469 L 1049.789062 845.753906 L 1036.074219 878.253906 Z M 1000.179688 863.121094 " style=" stroke:none;fill-rule:nonzero;fill:rgb(0%,0%,0%);fill-opacity:1;" />
<path d="M 1027.5625 798.117188 L 1041.273438 765.636719 L 1077.171875 780.777344 L 1063.46875 813.269531 Z M 1027.5625 798.117188 " style=" stroke:none;fill-rule:nonzero;fill:rgb(0%,0%,0%);fill-opacity:1;" />
<path d="M 394.5 1062.710938 L 409.609375 1026.824219 L 442.089844 1040.507812 L 426.976562 1076.390625 Z M 394.5 1062.710938 " style=" stroke:none;fill-rule:nonzero;fill:rgb(0%,0%,0%);fill-opacity:1;" />
<path d="M 459.433594 1090.148438 L 474.550781 1054.246094 L 507.019531 1067.945312 L 491.914062 1103.832031 Z M 459.433594 1090.148438 " style=" stroke:none;fill-rule:nonzero;fill:rgb(0%,0%,0%);fill-opacity:1;" />
<path d="M 330.15625 1035.578125 L 345.304688 999.671875 L 377.820312 1013.382812 L 362.675781 1049.285156 Z M 330.15625 1035.578125 " style=" stroke:none;fill-rule:nonzero;fill:rgb(0%,0%,0%);fill-opacity:1;" />
<path d="M 312.804688 985.972656 L 311.128906 985.265625 C 311.761719 981.59375 312.136719 977.875 312.226562 974.140625 C 312.160156 960.265625 308.359375 946.664062 301.21875 934.769531 L 370.269531 865.71875 L 342.714844 838.167969 L 273.511719 907.378906 C 258.277344 898.898438 240.71875 895.59375 223.441406 897.941406 L 222.464844 895.628906 L 209.417969 901.136719 C 205.296875 902.453125 201.289062 904.152344 197.464844 906.175781 L 186.5625 910.769531 L 187.296875 912.496094 C 184.433594 914.476562 181.734375 916.667969 179.195312 919.039062 C 158.941406 938.609375 150.800781 967.589844 157.945312 994.839844 C 165.082031 1022.078125 186.359375 1043.355469 213.605469 1050.5 C 240.84375 1057.613281 269.828125 1049.5 289.402344 1029.242188 C 291.78125 1026.699219 293.996094 1024.011719 296.035156 1021.175781 L 297.671875 1021.875 L 301.097656 1013.769531 C 304.664062 1007.761719 307.386719 1001.304688 309.175781 994.550781 Z M 261.84375 1001.695312 C 246.421875 1016.417969 222.152344 1016.417969 206.75 1001.695312 C 191.527344 986.472656 191.527344 961.800781 206.734375 946.585938 C 221.957031 931.363281 246.636719 931.363281 261.84375 946.585938 C 277.066406 961.800781 277.066406 986.472656 261.84375 1001.695312 Z M 261.84375 1001.695312 " style=" stroke:none;fill-rule:nonzero;fill:rgb(0%,0%,0%);fill-opacity:1;" />
<path d="M 131.742188 427.152344 L 145.449219 394.667969 L 181.359375 409.820312 L 167.648438 442.308594 Z M 131.742188 427.152344 " style=" stroke:none;fill-rule:nonzero;fill:rgb(0%,0%,0%);fill-opacity:1;" />
<path d="M 104.347656 492.167969 L 118.058594 459.664062 L 153.96875 474.808594 L 140.25 507.316406 Z M 104.347656 492.167969 " style=" stroke:none;fill-rule:nonzero;fill:rgb(0%,0%,0%);fill-opacity:1;" />
<path d="M 159.15625 362.179688 L 172.855469 329.695312 L 208.765625 344.835938 L 195.050781 377.324219 Z M 159.15625 362.179688 " style=" stroke:none;fill-rule:nonzero;fill:rgb(0%,0%,0%);fill-opacity:1;" />
<path d="M 104.339844 715.757812 L 140.238281 700.613281 L 153.960938 733.117188 L 118.054688 748.265625 Z M 104.339844 715.757812 " style=" stroke:none;fill-rule:nonzero;fill:rgb(0%,0%,0%);fill-opacity:1;" />
<path d="M 159.15625 845.765625 L 195.050781 830.625 L 208.765625 863.105469 L 172.855469 878.25 Z M 159.15625 845.765625 " style=" stroke:none;fill-rule:nonzero;fill:rgb(0%,0%,0%);fill-opacity:1;" />
<path d="M 131.765625 780.761719 L 167.660156 765.617188 L 181.363281 798.109375 L 145.460938 813.253906 Z M 131.765625 780.761719 " style=" stroke:none;fill-rule:nonzero;fill:rgb(0%,0%,0%);fill-opacity:1;" />
<path d="M 107.65625 676.058594 C 108.402344 675.746094 109.132812 675.449219 109.859375 675.117188 L 126.640625 668.046875 L 125.578125 665.578125 C 139.355469 655.058594 149.226562 640.226562 153.597656 623.453125 L 253.785156 623.453125 L 253.785156 584.484375 L 153.597656 584.484375 C 149.207031 567.675781 139.324219 552.8125 125.5 542.285156 L 126.554688 539.8125 L 109.785156 532.742188 C 109.058594 532.40625 108.316406 532.117188 107.585938 531.808594 L 90.644531 524.675781 L 89.589844 527.164062 C 85.90625 526.519531 82.167969 526.132812 78.433594 526.039062 C 35.390625 526.039062 0.5 560.9375 0.5 603.96875 C 0.5 647.007812 35.390625 681.898438 78.433594 681.898438 C 82.167969 681.796875 85.90625 681.410156 89.589844 680.765625 L 90.644531 683.265625 Z M 39.472656 603.96875 C 39.472656 582.453125 56.914062 565 78.433594 565 C 99.953125 565 117.402344 582.453125 117.402344 603.96875 C 117.402344 625.488281 99.953125 642.929688 78.433594 642.929688 C 56.914062 642.929688 39.472656 625.488281 39.472656 603.96875 Z M 39.472656 603.96875 " style=" stroke:none;fill-rule:nonzero;fill:rgb(0%,0%,0%);fill-opacity:1;" />
<path d="M 831.128906 1013.359375 L 863.625 999.660156 L 878.773438 1035.554688 L 846.273438 1049.265625 Z M 831.128906 1013.359375 " style=" stroke:none;fill-rule:nonzero;fill:rgb(0%,0%,0%);fill-opacity:1;" />
<path d="M 701.117188 1068.195312 L 733.621094 1054.480469 L 748.765625 1090.382812 L 716.257812 1104.105469 Z M 701.117188 1068.195312 " style=" stroke:none;fill-rule:nonzero;fill:rgb(0%,0%,0%);fill-opacity:1;" />
<path d="M 766.117188 1040.773438 L 798.609375 1027.070312 L 813.761719 1062.980469 L 781.261719 1076.675781 Z M 766.117188 1040.773438 " style=" stroke:none;fill-rule:nonzero;fill:rgb(0%,0%,0%);fill-opacity:1;" />
<path d="M 676.550781 1100.78125 C 676.246094 1100.035156 675.953125 1099.296875 675.613281 1098.582031 L 668.550781 1081.800781 L 666.078125 1082.855469 C 655.558594 1069.078125 640.726562 1059.21875 623.957031 1054.84375 L 623.957031 954.65625 L 584.980469 954.65625 L 584.980469 1054.84375 C 568.175781 1059.230469 553.316406 1069.113281 542.785156 1082.933594 L 540.308594 1081.875 L 533.234375 1098.660156 C 532.917969 1099.375 532.621094 1100.109375 532.308594 1100.859375 L 525.164062 1117.789062 L 527.671875 1118.835938 C 522.402344 1149.425781 535.78125 1180.210938 561.730469 1197.234375 C 587.679688 1214.253906 621.253906 1214.253906 647.203125 1197.234375 C 673.152344 1180.210938 686.539062 1149.425781 681.269531 1118.835938 L 683.761719 1117.789062 Z M 604.46875 1168.972656 C 582.953125 1168.972656 565.511719 1151.527344 565.511719 1130.007812 C 565.511719 1108.484375 582.953125 1091.042969 604.46875 1091.042969 C 625.984375 1091.042969 643.4375 1108.484375 643.4375 1130.007812 C 643.4375 1151.527344 625.984375 1168.972656 604.46875 1168.972656 Z M 604.46875 1168.972656 " style=" stroke:none;fill-rule:nonzero;fill:rgb(0%,0%,0%);fill-opacity:1;" />
<path d="M 1000.160156 344.8125 L 1036.054688 329.660156 L 1049.773438 362.179688 L 1013.867188 377.320312 Z M 1000.160156 344.8125 " style=" stroke:none;fill-rule:nonzero;fill:rgb(0%,0%,0%);fill-opacity:1;" />
<path d="M 1054.960938 474.808594 L 1090.871094 459.664062 L 1104.574219 492.152344 L 1068.667969 507.296875 Z M 1054.960938 474.808594 " style=" stroke:none;fill-rule:nonzero;fill:rgb(0%,0%,0%);fill-opacity:1;" />
<path d="M 1027.574219 409.800781 L 1063.484375 394.660156 L 1077.171875 427.144531 L 1041.273438 442.289062 Z M 1027.574219 409.800781 " style=" stroke:none;fill-rule:nonzero;fill:rgb(0%,0%,0%);fill-opacity:1;" />
<path d="M 532.382812 107.152344 C 532.695312 107.894531 532.992188 108.640625 533.316406 109.347656 L 540.386719 126.132812 L 542.867188 125.078125 C 553.382812 138.851562 568.214844 148.710938 584.980469 153.089844 L 584.980469 253.273438 L 623.957031 253.273438 L 623.957031 153.089844 C 640.765625 148.707031 655.625 138.828125 666.148438 125 L 668.628906 126.058594 L 675.699219 109.269531 C 676.03125 108.558594 676.316406 107.820312 676.636719 107.078125 L 683.761719 90.144531 L 681.269531 89.097656 C 681.917969 85.40625 682.285156 81.675781 682.398438 77.929688 C 682.398438 34.890625 647.507812 0 604.46875 0 C 561.4375 0 526.535156 34.890625 526.535156 77.929688 C 526.648438 81.675781 527.023438 85.40625 527.671875 89.097656 L 525.164062 90.144531 Z M 604.46875 38.96875 C 625.984375 38.96875 643.4375 56.410156 643.4375 77.929688 C 643.4375 99.445312 625.984375 116.902344 604.46875 116.902344 C 582.953125 116.902344 565.511719 99.445312 565.511719 77.929688 C 565.511719 56.410156 582.953125 38.96875 604.46875 38.96875 Z M 604.46875 38.96875 " style=" stroke:none;fill-rule:nonzero;fill:rgb(0%,0%,0%);fill-opacity:1;" />
<path d="M 330.171875 172.351562 L 362.660156 158.640625 L 377.800781 194.546875 L 345.316406 208.246094 Z M 330.171875 172.351562 " style=" stroke:none;fill-rule:nonzero;fill:rgb(0%,0%,0%);fill-opacity:1;" />
<path d="M 460.167969 117.566406 L 492.652344 103.871094 L 507.800781 139.765625 L 475.308594 153.476562 Z M 460.167969 117.566406 " style=" stroke:none;fill-rule:nonzero;fill:rgb(0%,0%,0%);fill-opacity:1;" />
<path d="M 395.183594 144.960938 L 427.675781 131.265625 L 442.820312 167.15625 L 410.328125 180.867188 Z M 395.183594 144.960938 " style=" stroke:none;fill-rule:nonzero;fill:rgb(0%,0%,0%);fill-opacity:1;" />
</g>
</svg>