<?xml version="1.0" encoding="iso-8859-1"?>
<!-- Generator: Adobe Illustrator 19.0.0, SVG Export Plug-In . SVG Version: 6.00 Build 0)  -->
<svg xmlns="http://www.w3.org/2000/svg" xmlns:xlink="http://www.w3.org/1999/xlink" version="1.1" id="Layer_1" x="0px" y="0px" viewBox="0 0 511.997 511.997" style="enable-background:new 0 0 511.997 511.997;" xml:space="preserve" width="512px" height="512px">
<g>
	<g>
		<path d="M422,301.966c-0.007-0.208-0.014-0.416-0.032-0.624c-0.016-0.182-0.04-0.362-0.065-0.541    c-0.025-0.185-0.05-0.37-0.084-0.553c-0.035-0.192-0.08-0.381-0.124-0.57c-0.041-0.168-0.082-0.337-0.13-0.503    c-0.056-0.193-0.118-0.382-0.184-0.571c-0.056-0.16-0.111-0.318-0.174-0.476c-0.075-0.188-0.157-0.372-0.241-0.555    c-0.07-0.152-0.141-0.304-0.218-0.454c-0.096-0.183-0.197-0.362-0.301-0.54c-0.082-0.14-0.165-0.28-0.254-0.417    c-0.12-0.186-0.249-0.365-0.38-0.544c-0.088-0.118-0.173-0.239-0.265-0.355c-0.155-0.194-0.317-0.38-0.484-0.563    c-0.063-0.069-0.117-0.143-0.182-0.211c-39.73-41.726-81.691-109.624-115.125-186.285c-14.432-33.094-26.689-66.318-36.464-98.778    c-0.873-5.053-5.073-8.958-10.267-9.379c-0.099-0.009-0.198-0.009-0.297-0.015c-0.094-0.006-0.189-0.011-0.283-0.015    C256.295,0.009,256.143,0,255.99,0c-0.19,0-0.378,0.013-0.566,0.023c-0.18,0.009-0.359,0.015-0.54,0.033    c-0.217,0.022-0.431,0.057-0.645,0.09c-0.152,0.024-0.305,0.042-0.457,0.073c-0.248,0.05-0.491,0.115-0.735,0.18    c-0.103,0.028-0.208,0.045-0.312,0.076c-0.018,0.006-0.034,0.013-0.051,0.018c-0.24,0.074-0.474,0.163-0.708,0.251    c-0.124,0.047-0.251,0.086-0.373,0.136c-0.141,0.059-0.275,0.131-0.413,0.196c-0.866,0.404-1.67,0.898-2.388,1.485    c-0.006,0.005-0.013,0.009-0.018,0.014c-0.183,0.15-0.353,0.314-0.525,0.474c-0.101,0.093-0.207,0.181-0.305,0.277    c-0.097,0.097-0.182,0.201-0.275,0.301c-0.161,0.174-0.326,0.345-0.478,0.529c-0.002,0.002-0.003,0.006-0.006,0.008    c-0.59,0.72-1.087,1.526-1.493,2.397c-0.065,0.139-0.136,0.273-0.196,0.414c-0.05,0.121-0.089,0.247-0.135,0.37    c-0.09,0.235-0.18,0.471-0.252,0.713c-0.006,0.017-0.013,0.033-0.018,0.05c-9.838,32.882-22.243,66.558-36.868,100.092    c-33.442,76.676-75.401,144.575-115.118,186.285c-0.068,0.072-0.124,0.148-0.19,0.221c-0.163,0.18-0.323,0.36-0.474,0.55    c-0.094,0.119-0.182,0.241-0.272,0.364c-0.128,0.175-0.255,0.352-0.374,0.536c-0.09,0.139-0.174,0.281-0.257,0.423    c-0.103,0.176-0.205,0.352-0.298,0.534c-0.078,0.151-0.15,0.304-0.221,0.457c-0.084,0.182-0.166,0.365-0.24,0.551    c-0.063,0.158-0.119,0.317-0.175,0.478c-0.065,0.189-0.128,0.378-0.184,0.571c-0.048,0.167-0.089,0.336-0.13,0.504    c-0.045,0.189-0.089,0.376-0.124,0.569c-0.034,0.184-0.059,0.368-0.084,0.554c-0.024,0.18-0.049,0.358-0.065,0.54    c-0.018,0.208-0.025,0.416-0.032,0.624c-0.003,0.122-0.018,0.24-0.018,0.362c0,0.046,0.006,0.089,0.007,0.134    c0.002,0.216,0.018,0.431,0.033,0.646c0.011,0.163,0.017,0.326,0.035,0.487c0.022,0.2,0.058,0.397,0.091,0.596    c0.028,0.171,0.051,0.343,0.086,0.512c0.041,0.191,0.096,0.378,0.146,0.566c0.044,0.167,0.084,0.338,0.135,0.501    c0.064,0.202,0.144,0.401,0.219,0.6c0.055,0.142,0.101,0.287,0.161,0.426c0.096,0.223,0.207,0.439,0.316,0.656    c0.056,0.109,0.104,0.222,0.163,0.327c0.119,0.219,0.256,0.431,0.39,0.643c0.063,0.099,0.121,0.201,0.186,0.298    c0.13,0.191,0.275,0.375,0.418,0.559c0.086,0.111,0.167,0.225,0.258,0.333c0.134,0.16,0.28,0.313,0.424,0.467    c0.115,0.123,0.226,0.247,0.346,0.364c0.04,0.039,0.074,0.082,0.115,0.121c0.117,0.111,0.243,0.208,0.364,0.315    c0.113,0.099,0.223,0.199,0.34,0.293c0.181,0.147,0.367,0.282,0.555,0.415c0.107,0.076,0.211,0.154,0.321,0.226    c0.205,0.135,0.415,0.259,0.627,0.381c0.102,0.059,0.204,0.119,0.308,0.175c0.223,0.118,0.45,0.224,0.678,0.326    c0.105,0.047,0.207,0.097,0.313,0.14c0.237,0.098,0.476,0.182,0.717,0.263c0.106,0.035,0.21,0.075,0.317,0.107    c0.259,0.078,0.521,0.142,0.784,0.201c0.094,0.022,0.186,0.048,0.282,0.067c0.32,0.064,0.641,0.111,0.964,0.148    c0.042,0.005,0.082,0.014,0.124,0.017c0.381,0.039,0.763,0.061,1.145,0.061c0.015,0,0.031-0.002,0.045-0.002    c39.12,0.024,70.939,31.856,70.939,70.981v3.091h-19.314c-6.279,0-11.371,5.091-11.371,11.371v101.489    c0,6.28,5.092,11.371,11.371,11.371h205.961c6.279,0,11.371-5.091,11.371-11.371V399.136c0-6.28-5.092-11.371-11.371-11.371    h-19.314v-3.091c0-39.125,31.819-70.958,70.939-70.981c0.015,0,0.031,0.002,0.045,0.002c0.382,0,0.763-0.023,1.144-0.061    c0.043-0.005,0.086-0.014,0.13-0.018c0.321-0.036,0.64-0.083,0.957-0.147c0.099-0.019,0.196-0.048,0.295-0.069    c0.258-0.059,0.515-0.12,0.769-0.198c0.113-0.034,0.222-0.075,0.332-0.113c0.235-0.08,0.47-0.161,0.702-0.257    c0.111-0.045,0.219-0.098,0.329-0.148c0.223-0.1,0.443-0.204,0.662-0.318c0.109-0.058,0.216-0.123,0.323-0.184    c0.207-0.118,0.413-0.24,0.614-0.373c0.113-0.075,0.221-0.155,0.33-0.233c0.185-0.132,0.368-0.265,0.547-0.409    c0.118-0.096,0.23-0.197,0.343-0.297c0.121-0.106,0.246-0.201,0.363-0.313c0.041-0.039,0.075-0.082,0.115-0.12    c0.119-0.117,0.231-0.242,0.346-0.364c0.144-0.155,0.29-0.307,0.424-0.467c0.092-0.102,0.174-0.216,0.259-0.328    c0.143-0.184,0.288-0.368,0.418-0.56c0.066-0.097,0.123-0.199,0.187-0.298c0.135-0.213,0.271-0.424,0.391-0.642    c0.058-0.106,0.106-0.217,0.16-0.325c0.11-0.218,0.223-0.435,0.317-0.658c0.059-0.138,0.106-0.282,0.159-0.422    c0.076-0.201,0.157-0.4,0.221-0.604c0.052-0.165,0.091-0.334,0.135-0.501c0.05-0.189,0.105-0.376,0.146-0.566    c0.035-0.168,0.058-0.34,0.086-0.511c0.033-0.199,0.069-0.397,0.091-0.596c0.018-0.16,0.024-0.324,0.035-0.487    c0.015-0.215,0.031-0.431,0.033-0.646c0.001-0.046,0.007-0.089,0.007-0.134C422.018,302.205,422.004,302.086,422,301.966z     M256.101,251.789c6.591,0,11.952,5.362,11.952,11.952c0,6.59-5.362,11.952-11.952,11.952c-6.591,0-11.952-5.362-11.952-11.952    C244.149,257.152,249.51,251.789,256.101,251.789z M347.61,410.511v28.002H256c-6.279,0-11.371,5.091-11.371,11.371    s5.092,11.371,11.371,11.371h91.61v28.003H164.391v-78.747H347.61z M316.924,384.678v3.091H195.077v-3.091    c0-43.793-30.194-80.655-70.855-90.89c36.916-43.771,74.431-106.729,104.858-176.495c5.533-12.688,10.753-25.399,15.65-38.084    v151.764c-13.56,4.719-23.323,17.622-23.323,32.771c0,19.131,15.565,34.695,34.695,34.695s34.695-15.564,34.695-34.695    c0-15.149-9.762-28.052-23.323-32.771V79.742c4.837,12.508,9.984,25.041,15.44,37.55    c30.424,69.757,67.941,132.714,104.866,176.495C347.119,304.022,316.924,340.885,316.924,384.678z" fill="#fafbfd"/>
	</g>
</g>
<g>
</g>
<g>
</g>
<g>
</g>
<g>
</g>
<g>
</g>
<g>
</g>
<g>
</g>
<g>
</g>
<g>
</g>
<g>
</g>
<g>
</g>
<g>
</g>
<g>
</g>
<g>
</g>
<g>
</g>
</svg>
