<svg height="512" viewBox="0 0 512 512" width="512" xmlns="http://www.w3.org/2000/svg"><path d="m256 448-104-72 48-16-80-24-8-32h72l-80-32v-48l56 16-44.364-48 20.364-56 40 40-16-80 24-32 40 48-8-64 40-24z" fill="#e78404"/><path d="m256 448 104-72-48-16 80-24 8-32h-72l80-32v-48l-56 16 44.364-48-20.364-56-40 40 16-80-24-32-40 48 8-64-40-24z" fill="#ff9201"/><g fill="#75462e"><path d="m255.992 368a7.987 7.987 0 0 1 -4.429-1.344l-48-32a8 8 0 1 1 8.875-13.312l48 32a8 8 0 0 1 -4.446 14.656z"/><path d="m255.992 288a7.977 7.977 0 0 1 -4.793-1.6l-64-48a8 8 0 0 1 9.6-12.8l64 48a8 8 0 0 1 -4.809 14.4z"/><path d="m256 192a7.955 7.955 0 0 1 -5-1.75l-40-32a8 8 0 0 1 10-12.5l40 32a8 8 0 0 1 -5 14.25z"/></g><path d="m256.008 368a8 8 0 0 1 -4.445-14.656l48-32a8 8 0 0 1 8.875 13.312l-48 32a7.992 7.992 0 0 1 -4.43 1.344z" fill="#905638"/><path d="m256.008 288a8 8 0 0 1 -4.809-14.4l64-48a8 8 0 0 1 9.6 12.8l-64 48a7.977 7.977 0 0 1 -4.791 1.6z" fill="#905638"/><path d="m256 192a8 8 0 0 1 -5-14.25l40-32a8 8 0 0 1 10 12.5l-40 32a7.955 7.955 0 0 1 -5 1.75z" fill="#905638"/><path d="m144 424.891a7.934 7.934 0 0 1 -5.308-2.024l-8-7.109a8 8 0 1 1 10.625-11.953l8 7.109a8 8 0 0 1 -5.317 13.977z" fill="#fcd795"/><path d="m112 396.273a7.974 7.974 0 0 1 -5.57-2.257 146.79 146.79 0 0 1 -42.321-80.7 8 8 0 1 1 15.782-2.625 130.693 130.693 0 0 0 37.679 71.844 8 8 0 0 1 -5.57 13.738z" fill="#fcd795"/><path d="m271.926 495.977a7.872 7.872 0 0 1 -5.582-2.321 61.959 61.959 0 0 1 -18.344-44.14v-425.516a8 8 0 0 1 16 0v425.516a45.982 45.982 0 0 0 13.555 32.726 8.027 8.027 0 0 1 -5.629 13.735z" fill="#905638"/></svg>