<svg height="512" viewBox="0 0 512 512" width="512" xmlns="http://www.w3.org/2000/svg"><path d="m392 280 80-96h-131.2l35.2-88-64 32-56-104-56 104-64-32 35.2 88h-131.2l80 96-96 16 112 72-48 56 83.7-15.694a112 112 0 0 0 70.5-44.983l13.8-19.323 13.8 19.323a112 112 0 0 0 70.5 44.983l83.7 15.694-48-56 112-72z" fill="#c94536"/><path d="m171.7 400.306a112 112 0 0 0 70.5-44.983l13.8-19.323 13.8 19.323a112 112 0 0 0 70.5 44.983l75.53 14.162-39.83-46.468v-8l102.118-65.647-86.118-14.353v-8l73.333-88h-124.533v-8l31.2-78-60 30-56-104-56 104-60-30 31.2 78v8h-124.533l73.333 88v8l-86.118 14.353 102.118 65.647v8l-39.83 46.468z" fill="#f85542"/><g fill="#aa3a2e"><path d="m256 304a7.986 7.986 0 0 1 -4.227-1.207l-80-49.777a8 8 0 0 1 8.454-13.586l75.847 47.195 75.809-45.484a8 8 0 0 1 8.234 13.718l-80 48a7.982 7.982 0 0 1 -4.117 1.141z"/><path d="m256 216a7.991 7.991 0 0 1 -5.238-1.953l-46.153-40a8 8 0 0 1 10.477-12.094l40.914 35.461 40.914-35.461a8 8 0 0 1 10.477 12.094l-46.153 40a7.991 7.991 0 0 1 -5.238 1.953z"/><path d="m319.992 344a7.944 7.944 0 0 1 -4.23-1.215l-59.762-37.351-59.762 37.351a8 8 0 1 1 -8.476-13.57l64-40a8.011 8.011 0 0 1 8.476 0l64 40a8 8 0 0 1 -4.246 14.785z"/><path d="m284.438 481.344a45.808 45.808 0 0 1 -20.438-38.188v-404.299l-8-14.857-8 14.857v404.3a61.776 61.776 0 0 0 27.563 51.5 8 8 0 0 0 8.875-13.312z"/></g></svg>