<svg height="512pt" viewBox="0 -12 512.00003 512" width="512pt" xmlns="http://www.w3.org/2000/svg" xmlns:xlink="http://www.w3.org/1999/xlink"><linearGradient id="a" gradientTransform="matrix(.942883 .344747 -.344747 .942883 155.794271 -234.301961)" gradientUnits="userSpaceOnUse" x1="203.7918" x2="350.1336" y1="535.9855" y2="709.3441"><stop offset="0" stop-color="#acc130"/><stop offset="1" stop-color="#97a03b"/></linearGradient><linearGradient id="b"><stop offset="0" stop-color="#97a03b" stop-opacity="0"/><stop offset="1" stop-color="#575c55"/></linearGradient><linearGradient id="c" gradientTransform="matrix(.942883 .344747 -.344747 .942883 155.794271 -234.301961)" gradientUnits="userSpaceOnUse" x1="293.1282" x2="159.1694" xlink:href="#b" y1="622.0347" y2="502.7098"/><linearGradient id="d" gradientTransform="matrix(.942883 .344747 -.344747 .942883 155.794271 -234.301961)" gradientUnits="userSpaceOnUse" x1="173.7164" x2="208.6134" y1="542.6379" y2="587.6662"><stop offset="0" stop-color="#97a03b"/><stop offset="1" stop-color="#6c7d47"/></linearGradient><linearGradient id="e" gradientUnits="userSpaceOnUse" x1="295.721287852" x2="231.1097714618" xlink:href="#b" y1="377.3663345896" y2="298.0187491224"/><linearGradient id="f" gradientTransform="matrix(-.180104 -.987658 .987658 -.180104 772.097405 1112.425493)" gradientUnits="userSpaceOnUse" x1="854.5584" x2="1000.8987" y1="-279.4797" y2="-106.1228"><stop offset="0" stop-color="#ff4b3e"/><stop offset="1" stop-color="#972e07"/></linearGradient><linearGradient id="g"><stop offset="0" stop-color="#972e07" stop-opacity="0"/><stop offset="1" stop-color="#582707"/></linearGradient><linearGradient id="h" gradientTransform="matrix(-.180104 -.987658 .987658 -.180104 772.097405 1112.425493)" gradientUnits="userSpaceOnUse" x1="943.8936" x2="809.9319" xlink:href="#g" y1="-193.4318" y2="-312.7592"/><linearGradient id="i" gradientTransform="matrix(-.180104 -.987658 .987658 -.180104 772.097405 1112.425493)" gradientUnits="userSpaceOnUse" x1="824.4837" x2="859.3798" y1="-272.8272" y2="-227.7999"><stop offset="0" stop-color="#972e07"/><stop offset="1" stop-color="#582707"/></linearGradient><linearGradient id="j" gradientUnits="userSpaceOnUse" x1="365.4831248866" x2="250.996060791" xlink:href="#g" y1="303.2923513884" y2="255.6837599512"/><linearGradient id="k" gradientTransform="matrix(.900116 -.444637 .444637 .900116 -55.773867 428.882804)" gradientUnits="userSpaceOnUse" x1="350.9968" x2="497.3359" y1="-123.9508" y2="49.4046"><stop offset="0" stop-color="#ffe548"/><stop offset="1" stop-color="#ffb211"/></linearGradient><linearGradient id="l" gradientTransform="matrix(.900116 -.444637 .444637 .900116 -55.773867 428.882804)" gradientUnits="userSpaceOnUse" x1="440.332" x2="306.3797" y1="-37.9029" y2="-157.222"><stop offset="0" stop-color="#ffb211" stop-opacity="0"/><stop offset=".214" stop-color="#ff951d" stop-opacity=".215686"/><stop offset=".5597" stop-color="#ff6d2f" stop-opacity=".560784"/><stop offset=".8338" stop-color="#ff543a" stop-opacity=".835294"/><stop offset="1" stop-color="#ff4b3e"/></linearGradient><linearGradient id="m" gradientUnits="userSpaceOnUse" x1="185.26878549" x2="266.8793115374" y1="179.9594293742" y2="225.8653690994"><stop offset="0" stop-color="#ffb211"/><stop offset="1" stop-color="#ff4b3e"/></linearGradient><path d="m.667969 441.894531s-8.714844-290.632812 333.148437-151.589843c14.269532 5.800781 21.320313 21.882812 16.105469 36.375-25.066406 69.671874-114.589844 246.140624-349.253906 115.214843zm0 0" fill="url(#a)"/><path d="m349.921875 326.679688c2.890625-8.03125 2-16.550782-1.789063-23.539063-171.957031 45.355469-347.464843 138.753906-347.464843 138.753906 234.664062 130.925781 324.1875-45.542969 349.253906-115.214843zm0 0" fill="url(#c)"/><path d="m251.496094 369.132812c-2.898438-.675781-5.753906-1.5625-8.589844-2.402343-2.832031-.832031-5.65625-1.65625-8.421875-2.636719-2.785156-.910156-5.453125-2.242188-8.101563-3.496094-2.648437-1.273437-5.382812-2.074218-8.269531-2.46875-2.878906-.347656-5.785156-.574218-8.871093-.511718 3.640624-1.726563 7.277343-3.449219 10.921874-5.179688l17.898438-8.21875c5.960938-2.777344 12.035156-5.160156 18.039062-7.847656 12.082032-5.148438 24.273438-9.800782 36.832032-13.636719l-.535156-3.003906-9.914063 1.402343-4.996094.710938c-1.652343.277344-3.261719.664062-4.902343.988281-6.480469 1.46875-13.121094 2.679688-19.511719 4.46875-12.945313 3.234375-25.660157 7.105469-38.421875 10.910157-2.4375.796874-4.875 1.597656-7.316406 2.390624 1.160156-1.792968 2.179687-3.660156 2.90625-5.714843.992187-2.757813 1.945312-5.582031 3.273437-8.191407 1.273437-2.648437 2.695313-5.21875 4.117187-7.808593 1.414063-2.59375 2.8125-5.238281 4.394532-7.761719 2.949218-5.234375 6.375-10.171875 9.761718-15.355469l-1.164062-1.230469c-5.277344 3.28125-10.351562 7-15.089844 11.136719-2.398437 2.046875-4.640625 4.25-6.925781 6.453125-2.15625 2.296875-4.328125 4.609375-6.371094 7.03125-2.0625 2.410156-4.300781 4.734375-6.433593 7.167969-2.070313 2.464844-3.699219 5.234375-4.714844 8.300781-.191406.601563-.375 1.210938-.546875 1.828125-1.878907 6.695313-7.019531 11.984375-13.582031 14.28125l-.121094.042969c-11.417969 4-22.71875 8.242188-34.058594 12.429688 1.570312-2.558594 2.828125-5.109376 3.96875-7.699219 1.132812-2.683594 1.835938-5.445313 2.09375-8.367188.269531-2.917969.484375-5.894531 1.121094-8.753906.570312-2.882813 1.300781-5.726563 2.027344-8.589844.722656-2.867187 1.417968-5.773437 2.3125-8.613281 1.546874-5.808594 3.628906-11.449219 5.609374-17.3125l-1.433593-.902344c-4.289063 4.5-8.273438 9.371094-11.824219 14.5625-1.808594 2.582032-3.429688 5.277344-5.089844 7.980469-1.511718 2.761719-3.039062 5.546875-4.40625 8.402344-1.398437 2.851562-2.980468 5.660156-4.4375 8.550781-1.386718 2.90625-2.269531 5.992188-2.484375 9.214844-.082031 1.425781-.109375 2.863281-.058593 4.316406.242187 7.070312-4.367188 13.410156-11.035157 15.777344-5.722656 2.027344-11.457031 4.050781-17.164062 6.121094-7.238281 2.609374-14.316407 5.582031-21.265625 8.824218 1.300781-2.230468 2.394531-4.460937 3.394531-6.722656 1.128906-2.683594 1.832031-5.445312 2.089844-8.367188.269531-2.921874.488281-5.894531 1.121093-8.757812.570313-2.878906 1.300782-5.722656 2.027344-8.585938.722656-2.867187 1.414063-5.777343 2.3125-8.617187 1.546875-5.804687 3.632813-11.445313 5.609375-17.308594l-1.433593-.902343c-4.289063 4.5-8.269532 9.371093-11.824219 14.5625-1.808594 2.582031-3.429688 5.277343-5.089844 7.980468-1.511719 2.761719-3.035156 5.546875-4.40625 8.402344-1.398437 2.847656-2.976563 5.660156-4.433594 8.546875-1.390625 2.910156-2.273437 5.996094-2.488281 9.21875-.179688 3.203125-.09375 6.484375.546875 9.789063.730469 3.785156-.910156 7.613281-4.253906 9.539062-8.648438 4.988281-24.210938 14.136719-32.148438 19.566406-11.003906 7.644532-21.78125 15.746094-31.738281 25.460938l1.339844 2.742187c13.75-1.832031 26.796875-5.042969 39.613281-8.707031 12.804687-3.695312 25.328125-7.9375 37.628906-12.640625.21875-.082031.4375-.164063.652344-.246094 3.96875-1.515625 8.320313-.007812 10.757813 3.46875 1.800781 2.558594 3.914062 4.773438 6.144531 6.78125 2.425781 2.128907 5.226562 3.695313 8.261719 4.777344 3.070312 1.023437 6.171874 1.898437 9.171874 2.933594 2.984376 1.0625 6.03125 1.960937 9.050782 2.851562 3.082031.746094 6.132812 1.511719 9.234375 2.070313 6.183593 1.175781 12.441406 1.816406 18.652343 1.984375l.382813-1.652344c-5.539063-2.761719-10.996094-5.289063-16.183594-8.316406-2.640625-1.382813-5.183593-2.953125-7.714843-4.476563-2.535157-1.515625-5.0625-3.019531-7.496094-4.660156-2.46875-1.578125-4.71875-3.535156-6.96875-5.414062-2.242188-1.890626-4.6875-3.355469-7.382813-4.460938-2.941406-1.148438-5.976562-2.144531-9.296875-2.875 6.269532-2.871094 12.449219-5.957031 18.53125-9.242188 4.835938-2.671874 11.394532-6.195312 17.171875-9.273437 6.136719-3.277344 13.785157-2.398437 18.757813 2.46875 2.429687 2.378906 5.191406 4.386719 7.511718 6.46875 2.421876 2.132813 5.226563 3.699219 8.261719 4.78125 3.070313 1.019531 6.171875 1.898437 9.171875 2.933594 2.984375 1.058593 6.027344 1.957031 9.050782 2.851562 3.082031.742188 6.132812 1.511719 9.234374 2.066407 6.179688 1.175781 12.441407 1.820312 18.652344 1.988281l.382813-1.652344c-5.539063-2.761719-10.996094-5.289063-16.183594-8.316406-2.640625-1.382813-5.183594-2.953125-7.714844-4.476563-2.535156-1.519531-5.058593-3.019531-7.496093-4.660156-2.46875-1.582031-4.71875-3.539062-6.96875-5.417969-2.242188-1.890625-4.691407-3.351562-7.386719-4.457031-5.183594-2.027344-10.617188-3.609375-17.566407-3.957031 11.773438-5.78125 23.519532-11.679688 35.375-17.273438l.457032-.230469c7.132812-3.5625 15.777344-3.179687 22.21875 1.523438 1.820312 1.328125 3.738281 2.460938 5.683594 3.472656 2.878906 1.457032 5.984374 2.273438 9.195312 2.558594 3.226562.222656 6.453125.292969 9.613281.546875 3.15625.277344 6.328125.386719 9.476563.492187 3.171875-.050781 6.316406-.070312 9.460937-.308593 6.277344-.40625 12.496094-1.351563 18.554688-2.742188l-.046875-1.695312c-6.054688-1.289063-11.96875-2.371094-17.75-4.003907zm0 0" fill="url(#d)"/><path d="m330.167969 290.457031c-102.964844-42.738281-173.597657-45.039062-222.054688-27.664062 16.441407 44.417969 46.875 76.25 54.773438 84.015625l101.710937 103.804687c45.519532-37.070312 70.121094-91.59375 81.414063-123.632812 5.132812-14.550781-1.808594-30.699219-15.84375-36.523438zm0 0" fill="url(#e)"/><path d="m511.15625 407.960938s-246.21875 154.660156-299.398438-210.542969c-2.21875-15.242188 8.078126-29.464844 23.21875-32.308594 72.773438-13.652344 270.277344-25.796875 276.179688 242.851563zm0 0" fill="url(#f)"/><path d="m234.976562 165.113281c-8.394531 1.574219-15.289062 6.65625-19.394531 13.460938 126.171875 125.324219 295.574219 229.386719 295.574219 229.386719-5.902344-268.648438-203.40625-256.503907-276.179688-242.847657zm0 0" fill="url(#h)"/><path d="m321.417969 228.5c.886719 2.84375 1.566406 5.753906 2.277343 8.621094.714844 2.867187 1.433594 5.714844 1.992188 8.597656.621094 2.867188.824219 5.839844 1.082031 8.761719.246094 2.921875.9375 5.6875 2.058594 8.378906 1.15625 2.65625 2.4375 5.277344 4.050781 7.90625-3.328125-2.265625-6.660156-4.53125-9.996094-6.796875l-16.148437-11.269531c-5.414063-3.738281-10.542969-7.765625-15.902344-11.585938-10.558593-7.8125-20.738281-15.972656-30.40625-24.859375l-2.320312 1.980469 6.230469 7.84375 3.144531 3.945313c1.074219 1.285156 2.222656 2.480468 3.332031 3.726562 4.546875 4.847656 8.953125 9.964844 13.730469 14.566406 9.34375 9.527344 19.121093 18.53125 28.863281 27.609375 1.921875 1.699219 3.84375 3.398438 5.765625 5.101563-2.136719-.09375-4.257813-.027344-6.398437.386718-2.878907.539063-5.800782 1.148438-8.726563 1.324219-2.925781.242188-5.863281.320313-8.816406.402344-2.953125.09375-5.9375.222656-8.917969.140625-6.007812.105469-12-.351562-18.183594-.644531l-.472656 1.625c5.5 2.890625 11.277344 5.382812 17.246094 7.375 2.976562 1.03125 6.011718 1.851562 9.070312 2.707031 3.070313.695312 6.164063 1.398438 9.289063 1.933594 3.121093.558594 6.257812 1.308594 9.4375 1.917968 3.175781.539063 6.386719.539063 9.542969-.136718.617187-.136719 1.238281-.289063 1.855468-.453125 6.722656-1.769531 13.886719-.015625 19.191406 4.480469l.097657.082031c9.230469 7.824219 18.609375 15.421875 27.960937 23.082031-3-.058594-5.835937.148438-8.648437.472656-2.886719.382813-5.625 1.175782-8.277344 2.433594-2.652344 1.246094-5.328125 2.566406-8.113281 3.464844-2.773438.96875-5.597656 1.78125-8.4375 2.601562-2.835938.828125-5.695313 1.703125-8.597656 2.367188-5.789063 1.605468-11.707032 2.664062-17.765626 3.925781l-.054687 1.695313c6.054687 1.417968 12.269531 2.386718 18.546875 2.820312 3.140625.253906 6.285156.285156 9.457031.351562 3.148438-.09375 6.320313-.191406 9.480469-.457031 3.164062-.238281 6.386719-.296875 9.613281-.503906 3.210938-.273437 6.320313-1.074219 9.207031-2.519531 1.269532-.652344 2.527344-1.359375 3.753907-2.136719 5.972656-3.785156 13.773437-3.023437 19.191406 1.53125 4.648437 3.90625 9.292969 7.828125 13.96875 11.699219 5.917969 4.921875 12.0625 9.519531 18.378906 13.875-2.585937.003906-5.0625.191406-7.515625.476562-2.890625.382813-5.625 1.175782-8.277344 2.433594-2.65625 1.246094-5.328124 2.566406-8.117187 3.464844-2.773437.96875-5.597656 1.777344-8.433594 2.597656-2.839843.832031-5.695312 1.707031-8.601562 2.367188-5.789063 1.609374-11.707031 2.667968-17.765625 3.925781l-.050782 1.695312c6.050782 1.421875 12.265626 2.390625 18.542969 2.824219 3.144531.253906 6.285157.285156 9.457031.351562 3.148438-.097656 6.320313-.191406 9.480469-.457031 3.164063-.238281 6.386719-.296875 9.617188-.503906 3.207031-.273437 6.316406-1.074219 9.207031-2.519531 2.851562-1.46875 5.636719-3.203125 8.164062-5.429688 2.894532-2.546875 7.027344-3.070312 10.378907-1.164062 8.679687 4.933594 24.449219 13.726562 33.152343 17.820312 12.164063 5.621094 24.605469 10.808594 38.023438 14.480469l1.6875-2.542969c-8.539062-10.933594-17.914062-20.558594-27.5625-29.753906-9.671875-9.171875-19.667969-17.824219-29.953125-26.050781-.179687-.144531-.363281-.292969-.542969-.4375-3.316406-2.652344-4.21875-7.167969-2.457031-11.03125 1.300781-2.851563 2.140625-5.792969 2.738281-8.730469.609375-3.171875.542969-6.378906-.0625-9.546875-.671875-3.164063-1.484375-6.285156-2.113281-9.394531-.597656-3.109375-1.363281-6.191406-2.121094-9.246094-.921875-3.039062-1.800781-6.054688-2.894531-9.011719-2.117188-5.925781-4.726562-11.648437-7.730469-17.09375l-1.617187.507813c.421875 6.175781 1.003906 12.160156 1.019531 18.167968.148437 2.972657.078125 5.960938.046875 8.917969-.023438 2.953125-.042969 5.890625-.222656 8.824219-.113282 2.925781-.660156 5.859375-1.144532 8.75-.496093 2.890625-.515624 5.742188-.105468 8.625.496094 3.121094 1.175781 6.242188 2.226562 9.472656-5.652344-3.953125-11.4375-7.71875-17.351562-11.300781-4.753906-2.820313-11.113282-6.691406-16.691406-10.109375-5.933594-3.636719-9.050782-10.675781-7.367188-17.425781.820312-3.304688 1.152344-6.699219 1.773438-9.753907.609374-3.171874.542968-6.382812-.058594-9.546874-.675782-3.164063-1.488282-6.285157-2.117188-9.394532-.597656-3.113281-1.363281-6.191406-2.121094-9.246094-.921874-3.039062-1.800781-6.054687-2.894531-9.015624-2.113281-5.921876-4.726562-11.644532-7.730469-17.089844l-1.617187.507812c.425781 6.175782 1.003906 12.160156 1.019531 18.167969.148438 2.976563.078125 5.964844.046875 8.917969-.023437 2.953125-.042969 5.894531-.222656 8.824218-.113281 2.925782-.660156 5.859376-1.144531 8.75-.492188 2.894532-.515625 5.742188-.105469 8.628907.875 5.492187 2.265625 10.980469 5.484375 17.148437-10.945312-7.226562-21.980469-14.367187-32.808594-21.757812l-.425781-.277344c-6.6875-4.347656-10.730469-11.996094-9.9375-19.933594.222656-2.242187.230469-4.46875.117187-6.660156-.203124-3.222656-1.070312-6.3125-2.449218-9.222656-1.445313-2.898438-3.011719-5.714844-4.398438-8.566406-1.355468-2.863282-2.867187-5.65625-4.371094-8.421876-1.648437-2.710937-3.257812-5.414062-5.054687-8.003906-3.53125-5.207031-7.492187-10.09375-11.761719-14.609375l-1.441406.894531c1.960938 5.875 4.019531 11.519532 5.542969 17.335938zm0 0" fill="url(#i)"/><path d="m511.15625 407.960938c-5.902344-268.648438-203.40625-256.503907-276.179688-242.847657-15.140624 2.839844-25.4375 17.0625-23.21875 32.304688 53.179688 365.203125 299.398438 210.542969 299.398438 210.542969zm0 0" fill="url(#j)"/><path d="m165.730469 348.261719s-216.386719-194.214844 120.128906-345.742188c14.042969-6.324219 30.550781-.332031 37.441406 13.441407 33.136719 66.210937 99.105469 252.773437-157.570312 332.300781zm0 0" fill="url(#k)"/><path d="m323.300781 15.957031c-3.820312-7.636719-10.601562-12.867187-18.273437-14.945312-85.8125 155.765625-139.296875 347.246093-139.296875 347.246093 256.675781-79.523437 190.707031-266.085937 157.570312-332.300781zm0 0" fill="url(#l)"/><path d="m286.121094 116.496094c-2.488282 1.632812-5.101563 3.085937-7.664063 4.558594-2.558593 1.476562-5.101562 2.949218-7.71875 4.277343-2.582031 1.386719-5.386719 2.402344-8.125 3.453125-2.746093 1.035156-5.210937 2.460938-7.488281 4.277344-2.238281 1.847656-4.40625 3.796875-6.492188 6.070312 1.261719-3.824218 2.523438-7.648437 3.789063-11.480468l6.394531-18.625c2.105469-6.234375 4.570313-12.269532 6.769532-18.472656 4.609374-12.296876 9.652343-24.332032 15.542968-36.070313l-2.542968-1.683594-5.832032 8.144531-2.929687 4.105469c-.9375 1.390625-1.773438 2.820313-2.664063 4.230469-3.410156 5.703125-7.117187 11.347656-10.230468 17.207031-6.589844 11.601563-12.5625 23.472657-18.613282 35.339844-1.101562 2.3125-2.210937 4.632813-3.316406 6.945313-.496094-2.078126-1.148438-4.101563-2.128906-6.046876-1.3125-2.621093-2.699219-5.257812-3.671875-8.023437-1.039063-2.746094-1.921875-5.550781-2.8125-8.367187-.902344-2.8125-1.851563-5.648438-2.585938-8.535157-1.753906-5.746093-2.964843-11.636719-4.378906-17.660156l-1.695313-.007813c-1.265624 6.085938-2.074218 12.324219-2.351562 18.609376-.171875 3.148437-.125 6.289062-.105469 9.464843.171875 3.144531.351563 6.3125.695313 9.460938.316406 3.15625.460937 6.378906.746094 9.601562.355468 3.203125 1.238281 6.289063 2.753906 9.140625.304687.554688.621094 1.109375.945312 1.660156 3.550782 5.976563 3.835938 13.347657.96875 19.679688l-.050781.117188c-4.984375 11.027343-9.710937 22.132812-14.503906 33.230468-.769531-2.898437-1.746094-5.570312-2.832031-8.183594-1.164063-2.671874-2.679688-5.085937-4.617188-7.289062-1.925781-2.210938-3.929688-4.417969-5.5625-6.851562-1.691406-2.398438-3.25-4.890626-4.816406-7.394532-1.578125-2.5-3.207032-5.007812-4.640625-7.617187-3.136719-5.125-5.78125-10.523438-8.660157-16.003907l-1.644531.417969c.300781 6.207031 1.078125 12.449219 2.382813 18.605469.621094 3.089844 1.457031 6.121094 2.265625 9.191406.957031 3 1.921875 6.023438 3.042969 8.984375 1.097656 2.976563 2.039062 6.0625 3.128906 9.109375 1.144531 3.011719 2.769531 5.78125 4.953125 8.160156.976562 1.039063 2 2.054688 3.085937 3.019532 5.28125 4.703125 6.691406 12.414062 3.804688 18.871094-2.480469 5.546874-4.972656 11.085937-7.410156 16.648437-3.101563 7.042969-5.835938 14.214844-8.285157 21.484375-.714843-2.484375-1.578125-4.8125-2.523437-7.09375-1.164063-2.671875-2.679688-5.089844-4.617188-7.289062-1.925781-2.210938-3.929687-4.417969-5.5625-6.851563-1.691406-2.398437-3.25-4.894531-4.816406-7.394531-1.578125-2.5-3.203125-5.007813-4.640625-7.617188-3.136719-5.125-5.78125-10.523437-8.660156-16.003906l-1.644531.417969c.300781 6.207031 1.078124 12.449219 2.386718 18.601562.621094 3.09375 1.453125 6.125 2.261719 9.191407.957031 3 1.921875 6.023437 3.042969 8.988281 1.097656 2.976562 2.042968 6.058593 3.128906 9.105469 1.144531 3.011718 2.773438 5.78125 4.953125 8.160156 2.199219 2.339844 4.632813 4.542968 7.464844 6.359375 3.246093 2.082031 4.882812 5.910156 3.972656 9.660156-2.355469 9.703125-6.472656 27.277344-8.019531 36.773437-2.058594 13.242188-3.628906 26.628907-3.46875 40.539063l2.910156.921875c8.164062-11.214844 14.839844-22.875 21.03125-34.679688 6.15625-11.820312 11.730469-23.808593 16.8125-35.960937.089844-.214844.179688-.425781.269531-.640625 1.640625-3.917969 5.734375-6.027344 9.933594-5.394531 3.09375.464843 6.15625.460937 9.144531.230469 3.214844-.285157 6.285156-1.230469 9.160156-2.683594 2.859376-1.515625 5.632813-3.15625 8.453126-4.613282 2.828124-1.429687 5.578124-3.011718 8.308593-4.585937 2.667969-1.71875 5.324219-3.394531 7.867188-5.257813 5.117187-3.664062 9.902343-7.75 14.308593-12.128906l-.933593-1.417968c-5.820313 2.105468-11.414063 4.308593-17.183594 5.976562-2.820313.957031-5.714844 1.714844-8.5625 2.496094-2.847656.789062-5.679687 1.578125-8.546875 2.210937-2.847656.695313-5.816406.972657-8.726562 1.304688-2.917969.320312-5.664063 1.082031-8.324219 2.269531-2.863281 1.335938-5.675781 2.847656-8.496094 4.746094 2.246094-6.523438 4.277344-13.117188 6.097656-19.789063 1.402344-5.347656 3.378907-12.527343 5.132813-18.828125 1.863281-6.703125 7.777344-11.636718 14.730468-11.875 3.398438-.117187 6.757813-.734375 9.863282-.972656 3.21875-.285156 6.285156-1.234375 9.160156-2.683594 2.859375-1.519531 5.632812-3.160156 8.453125-4.617187 2.824219-1.429688 5.578125-3.011719 8.308594-4.582031 2.667969-1.71875 5.324219-3.398438 7.867187-5.261719 5.117188-3.660157 9.902344-7.746094 14.308594-12.128907l-.933594-1.414062c-5.820312 2.101562-11.414062 4.304688-17.1875 5.976562-2.820312.957032-5.710937 1.710938-8.5625 2.496094-2.847656.789063-5.675781 1.578125-8.542968 2.210938-2.847657.695312-5.816407.972656-8.726563 1.304687-2.917969.320313-5.664063 1.082031-8.324219 2.269531-5.042968 2.355469-9.9375 5.199219-14.984375 9.988282 3.941407-12.511719 7.773438-25.082032 11.902344-37.523438l.152344-.488281c2.339843-7.625 8.582031-13.617187 16.429687-15.035156 2.21875-.402344 4.363282-1.003907 6.4375-1.714844 3.042969-1.082031 5.773438-2.765625 8.195313-4.890625 2.386719-2.183594 4.664062-4.46875 7.027343-6.582031 2.378907-2.09375 4.648438-4.316407 6.898438-6.519531 2.152344-2.332032 4.304688-4.621094 6.300781-7.0625 4.039063-4.824219 7.644531-9.976563 10.816407-15.324219l-1.257813-1.136719c-5.109375 3.496094-9.972656 7.027344-15.144531 10.089844zm0 0" fill="url(#m)"/></svg>